<svg viewBox="50.255 187.946 394.756 104.586" xmlns="http://www.w3.org/2000/svg">
                    <defs>
                        <clipPath id="clip-path">
                            <rect id="Rectangle_2057" data-name="Rectangle 2057" width="394.758" height="104.586" fill="none"></rect>
                        </clipPath>
                        <clipPath id="clip-path-2">
                            <rect id="Rectangle_2056" data-name="Rectangle 2056" width="394.757" height="104.586" fill="none"></rect>
                        </clipPath>
                        <clipPath id="clip-path-3">
                            <rect id="Rectangle_2053" data-name="Rectangle 2053" width="196.425" height="66.264" fill="none"></rect>
                        </clipPath>
                        <clipPath id="clip-path-4">
                            <rect id="Rectangle_2054" data-name="Rectangle 2054" width="17.929" height="39.047" fill="none"></rect>
                        </clipPath>
                    </defs>
                    <g id="Group_103" data-name="Group 103" clip-path="url(#clip-path)" transform="matrix(1, 0, 0, 1, 50.255154, 187.946365)">
                        <g id="Group_102" data-name="Group 102">
                            <g id="Group_101" data-name="Group 101" clip-path="url(#clip-path-2)">
                                <g id="Group_97" data-name="Group 97" transform="translate(198.333 38.322)" opacity="0.96">
                                    <g id="Group_96" data-name="Group 96">
                                        <g id="Group_95" data-name="Group 95" clip-path="url(#clip-path-3)">
                                            <path id="Path_4508" data-name="Path 4508" d="M681.7,159.76a9.136,9.136,0,0,1-9.516-8.772h5.6c.235,2.428,1.527,3.6,3.916,3.6,2.31,0,3.916-1.449,3.916-3.524a3.668,3.668,0,0,0-1.331-2.937c-.862-.666-1.175-.784-5.012-2.233-3.877-1.449-6.03-4.229-6.03-7.871a8.5,8.5,0,0,1,17,0H684.68c-.157-1.958-1.253-3.054-3.055-3.054a2.827,2.827,0,0,0-2.976,2.937,3.052,3.052,0,0,0,1.606,2.624,18.926,18.926,0,0,0,3.211,1.292c5.874,2.193,7.479,4.738,7.479,8.654a9.12,9.12,0,0,1-9.242,9.281" transform="translate(-672.071 -129.803)" style="fill: rgb(70, 71, 73);"></path>
                                            <path id="Path_4509" data-name="Path 4509" d="M762.656,160.468l-8.968-12.727v12.727h-5.365V131.529h5.365v12.492l8.968-12.492h6.461l-10.886,14.215,10.886,14.724Z" transform="translate(-725.729 -131.019)" style="fill: rgb(70, 71, 73);"></path>
                                            <rect id="Rectangle_2052" data-name="Rectangle 2052" width="5.365" height="28.939" transform="translate(46.874 0.509)" style="fill: rgb(70, 71, 73);"></rect>
                                            <path id="Path_4510" data-name="Path 4510" d="M867.7,160.468V131.529h5.365v23.809h8.85v5.13Z" transform="translate(-809.862 -131.019)" style="fill: rgb(70, 71, 73);"></path>
                                            <path id="Path_4511" data-name="Path 4511" d="M926.062,160.468V131.529h5.365v23.809h8.85v5.13Z" transform="translate(-850.994 -131.019)" style="fill: rgb(70, 71, 73);"></path>
                                            <path id="Path_4512" data-name="Path 4512" d="M696.736,283.444l-4.19-9.751H679.075l-4.229,9.751h-3.054L684.2,254.505h3.25l12.453,28.939Zm-10.887-25.649-5.678,13.275H691.41Z" transform="translate(-671.791 -217.689)" style="fill: rgb(70, 71, 73);"></path>
                                            <path id="Path_4513" data-name="Path 4513" d="M784.875,282.738c-8.654,0-15.194-6.422-15.194-14.881a14.635,14.635,0,0,1,15-15.076c5.991,0,11.082,3.054,13.314,8.028h-3.25a10.975,10.975,0,0,0-9.947-5.365,12.023,12.023,0,0,0-12.179,12.3,12.335,12.335,0,0,0,12.218,12.335c4.229,0,7.01-1.605,10.064-5.443h3.211c-2.9,5.365-7.362,8.106-13.236,8.106" transform="translate(-740.781 -216.474)" style="fill: rgb(70, 71, 73);"></path>
                                            <path id="Path_4514" data-name="Path 4514" d="M895.434,283.444l-4.19-9.751H877.773l-4.229,9.751h-3.054L882.9,254.505h3.25l12.453,28.939Zm-10.887-25.649-5.678,13.275h11.239Z" transform="translate(-811.827 -217.689)" style="fill: rgb(70, 71, 73);"></path>
                                            <path id="Path_4515" data-name="Path 4515" d="M985.058,283.444h-7.793V254.505h6.814c5.247,0,8.3.626,11.043,2.271,4.307,2.546,6.579,6.853,6.579,12.3,0,8.341-5.325,14.372-16.642,14.372m8.458-24.436c-2.193-1.331-4.934-1.879-9.32-1.879h-4.033V280.82H984.2c5.13,0,8.106-.744,10.417-2.585a11.678,11.678,0,0,0,4.151-9.281,11.227,11.227,0,0,0-5.247-9.947" transform="translate(-887.08 -217.689)" style="fill: rgb(70, 71, 73);"></path>
                                            <path id="Path_4516" data-name="Path 4516" d="M1075.949,283.445V254.506h15.82v2.624h-12.923v10.377h12.492v2.624h-12.492v10.691h12.923v2.623Z" transform="translate(-956.629 -217.69)" style="fill: rgb(70, 71, 73);"></path>
                                            <path id="Path_4517" data-name="Path 4517" d="M1174.182,283.445V257.678L1163.3,283.445h-2.506l-10.847-25.767v25.767h-2.9V254.506h4.5l10.534,24.631,10.495-24.631h4.5v28.939Z" transform="translate(-1006.736 -217.69)" style="fill: rgb(70, 71, 73);"></path>
                                            <path id="Path_4518" data-name="Path 4518" d="M1272.049,273.772v9.672h-2.9v-9.672l-10.025-19.267h3.211l8.223,16.212,8.42-16.212h3.172Z" transform="translate(-1085.727 -217.689)" style="fill: rgb(70, 71, 73);"></path>
                                        </g>
                                    </g>
                                </g>
                                <path id="Path_4519" data-name="Path 4519" d="M214.149,155.3H115.56A15.785,15.785,0,0,1,99.775,139.51V71.952H214.149Z" transform="translate(-70.318 -50.71)" fill="#fff"></path>
                                <path id="Path_4520" data-name="Path 4520" d="M184.525,237.62v14.063l-27.892-26.135,14.67-13.77v0l2.548-2.391.712-.667v28.9Z" transform="translate(-110.39 -147.098)" fill="#6cb263"></path>
                                <path id="Path_4521" data-name="Path 4521" d="M468.209,265.725V291.86H440.42Z" transform="translate(-310.395 -187.275)" fill="#dc5b5d"></path>
                                <path id="Path_4522" data-name="Path 4522" d="M264.324,217.134a5.833,5.833,0,0,0,.685,5.3,7.907,7.907,0,0,0,4.3,2.8,20.29,20.29,0,0,0-7,2.468,12.382,12.382,0,0,0-3.617,3.256,9.863,9.863,0,0,0-1.081,1.925,10.359,10.359,0,0,0-.629,2.114,12,12,0,0,0-.174,1.376c0,.021,0,.038,0,.059-.006.077-.009.154-.012.227l-5.692,5.059V227.651h5.53V196.559c0-.534-.012-1.057-.032-1.568-.009-.162-.014-.26-.023-.42l2.8,2.62c.756,7.791,4.487,11.8,12.992,14.3-.189-.056-6.4.776-8.048,5.639" transform="translate(-176.975 -137.129)" fill="#00a2da"></path>
                                <path id="Path_4523" data-name="Path 4523" d="M33.722,140.2v10.71L22.261,140.2Z" transform="translate(-15.689 -98.811)" fill="#009854"></path>
                                <path id="Path_4524" data-name="Path 4524" d="M102.97,45.268,80.552,66.255l-.059-20.994.006-8.547v-.006a18,18,0,0,1,3.067-9.622l6.04,5.657.652.611.219.207.446.416.225.21,1.133,1.063.685.641,1.145,1.075.909.85.449.422,1.951,1.827.387.363,1.76,1.647.278.263Z" transform="translate(-56.729 -19.09)" fill="#efa83c"></path>
                                <path id="Path_4525" data-name="Path 4525" d="M279.013,0l-27.9.041L279,26.178,306.816.041Z" transform="translate(-176.975 0)" fill="#f6bf2d"></path>
                                <path id="Path_4526" data-name="Path 4526" d="M437.228,123.7l.006,2.72c-.012,0-.02-.018-.04.017-.038,0-.078,0-.119,0H436.1v-2.663a3.943,3.943,0,0,1,.939-.089,1.239,1.239,0,0,1,.152.005c.014,0,.022,0,.034.006" transform="translate(-307.352 -87.171)" fill="#e8913e"></path>
                                <path id="Path_4527" data-name="Path 4527" d="M424.84,117.064v7.221h.945v-3.174s.914-.009,1.089.015l.039.027.011,4.836c-.015,0-.034.04-.048.05a5.445,5.445,0,0,1-2.659-.723,5.128,5.128,0,0,1-2.031-2.022,5.458,5.458,0,0,1,.015-5.456,5.089,5.089,0,0,1,2.046-2.022,5.525,5.525,0,0,1,2.629-.709c.021.017.017.015.029.015l.01,1.778c-.012,0-.027.005-.038.005-.071,0-.146,0-.22,0a9.94,9.94,0,0,0-1.816.162" transform="translate(-297.035 -81.124)" fill="#e8913e"></path>
                                <path id="Path_4528" data-name="Path 4528" d="M373.4,52.364,361.581,41.283v0l1.193-6.654L352,31.348l1.119,1.982-7.529-7.054L373.4.139V33h-.032a6.574,6.574,0,0,0-3.129.847,6.023,6.023,0,0,0-2.453,2.424,6.555,6.555,0,0,0-.015,6.545,6.1,6.1,0,0,0,2.43,2.427,6.582,6.582,0,0,0,3.2.836h.044Z" transform="translate(-243.558 -0.098)" fill="#e8913e"></path>
                                <path id="Path_4529" data-name="Path 4529" d="M439.835,126.444l-.037,0V123.7h.034c.9.05,1.5.469,1.5,1.352a1.4,1.4,0,0,1-1.494,1.388" transform="translate(-309.957 -87.183)" fill="#00a2da"></path>
                                <path id="Path_4530" data-name="Path 4530" d="M439.794,126.04v-4.913l.038.006c.7.089,1.048.49,1.243,1.4a8.959,8.959,0,0,0,.481,1.751h.977a13.076,13.076,0,0,1-.555-2.011,1.871,1.871,0,0,0-1.075-1.482v-.03a1.937,1.937,0,0,0,1.379-1.86,1.826,1.826,0,0,0-.576-1.393,2.92,2.92,0,0,0-1.912-.6c.073-.018.012,0,0,0v-1.8h.058a5.582,5.582,0,0,1,2.684.709,5.05,5.05,0,0,1,2.046,2.022,5.485,5.485,0,0,1,.012,5.456,5.074,5.074,0,0,1-2.025,2.022,5.471,5.471,0,0,1-2.708.723Z" transform="translate(-309.953 -81.125)" fill="#00a2da"></path>
                                <path id="Path_4531" data-name="Path 4531" d="M467.77,26.276,439.8,52.363V46.075h.059a6.6,6.6,0,0,0,3.257-.857,6.05,6.05,0,0,0,2.424-2.427,6.582,6.582,0,0,0-.012-6.545,6.015,6.015,0,0,0-2.45-2.424A6.74,6.74,0,0,0,439.839,33H439.8V.139Z" transform="translate(-309.956 -0.098)" fill="#00a2da"></path>
                                <path id="Path_4532" data-name="Path 4532" d="M110.306.085V26.222l-3.125-2.93-.278-.263-1.76-1.647-.387-.363-1.951-1.827-.449-.422-.909-.851L100.3,16.845l-.685-.641-1.133-1.063-.225-.21-.445-.417-.219-.207-.652-.611L90.9,8.041A18.069,18.069,0,0,1,105.123.064a.063.063,0,0,1,.024,0Z" transform="translate(-64.065 -0.044)" fill="#f6bf2d"></path>
                                <path id="Path_4533" data-name="Path 4533" d="M184.522.139,156.629,26.276V.139Z" transform="translate(-110.387 -0.098)" fill="#d26ba1"></path>
                                <path id="Path_4534" data-name="Path 4534" d="M184.523.139V44.2c-.174-.151-1.345-1-1.632-1.181-.1-.062-.195-.124-.292-.18-.23-.142-.464-.278-.706-.4-.121-.062-.239-.124-.36-.183a15.47,15.47,0,0,0-3.25-1.166c-.089-.024-.18-.044-.272-.065l-.331-.071c-.094-.021-.189-.038-.283-.056s-.2-.038-.307-.056c-.3-.05-.593-.1-.9-.133q-.23-.031-.461-.053c-.115-.012-.23-.024-.345-.033s-.2-.017-.3-.023-.2-.015-.307-.021c-.156-.012-.313-.018-.472-.024s-.325-.012-.487-.015-.328-.006-.493-.006c-.139,0-.278,0-.416,0-.307,0-.608.012-.906.027l-.135,0c-.024,0-.1.006-.124.006l-15.118-14.3Z" transform="translate(-110.387 -0.098)" fill="#872f76"></path>
                                <path id="Path_4535" data-name="Path 4535" d="M279,26.276,254.659,49.047c-.056-.121-.112-.242-.171-.36s-.118-.236-.177-.351-.121-.233-.186-.345-.127-.224-.192-.337a14.686,14.686,0,0,0-.945-1.423c-.071-.094-.142-.186-.216-.278A13.161,13.161,0,0,0,251.11,44.2V.139Z" transform="translate(-176.975 -0.098)" fill="#efa83c"></path>
                                <path id="Path_4536" data-name="Path 4536" d="M467.77.139V26.276L439.8.139Z" transform="translate(-309.956 -0.098)" fill="#3a569a"></path>
                                <path id="Path_4537" data-name="Path 4537" d="M557.015,5.192,534.546,26.239V.1L545.209.087c.038,0,.08,0,.118,0h.044a17.99,17.99,0,0,1,11.644,5.1" transform="translate(-376.732 -0.061)" fill="#008fcc"></path>
                                <path id="Path_4538" data-name="Path 4538" d="M562.483,30.256v.018l-.023,34.24L534.546,38.426l22.469-21.048a18.03,18.03,0,0,1,5.468,12.878" transform="translate(-376.732 -12.247)" fill="#3e5f6e"></path>
                                <path id="Path_4539" data-name="Path 4539" d="M18.033,150.912v.506L0,168.316V140.2H6.572Z" transform="translate(0 -98.81)" fill="#6cb263"></path>
                                <path id="Path_4540" data-name="Path 4540" d="M18.033,268.51H0V252.554Z" transform="translate(0 -177.993)" fill="#ab403e"></path>
                                <path id="Path_4541" data-name="Path 4541" d="M90.225,227.822l-6.516,6.091a17.956,17.956,0,0,1-2.979-8.181.027.027,0,0,1,0-.015q-.044-.629-.044-1.267l0-8.718V194.8l7.029,6.525v26.5Z" transform="translate(-56.863 -137.288)" fill="#ab403e"></path>
                                <path id="Path_4542" data-name="Path 4542" d="M287.473,99.515c-6.873,2.946-16.089,8.111-18.728,15.371a17.071,17.071,0,0,0-.948,7.21c.012.136.04.325.054.461l-2.8-2.62c-.012-.2-.039-.451-.054-.651-.012-.154-.024-.3-.038-.455q-.12-1.337-.351-2.563l-.071-.363c-.038-.195-.08-.384-.124-.573s-.083-.348-.127-.523-.089-.342-.136-.511c-.136-.49-.289-.965-.455-1.426q-.027-.075-.053-.142c-.047-.124-.091-.245-.142-.366-.059-.154-.121-.3-.186-.455s-.121-.321-.189-.469l24.343-22.77Z" transform="translate(-185.446 -62.493)" fill="#3a569a"></path>
                                <path id="Path_4543" data-name="Path 4543" d="M333.364,184.019h0c-5.326-1.839-5.857-8.6-4.532-12.128a16.56,16.56,0,0,1,4.523-6.023h0Z" transform="translate(-231.317 -116.899)" fill="#3a569a"></path>
                                <path id="Path_4544" data-name="Path 4544" d="M353.6,96.592a73.008,73.008,0,0,0-8.012,2.923V88.67l7.529,7.054Z" transform="translate(-243.558 -62.492)" fill="#008fcc"></path>
                                <path id="Path_4545" data-name="Path 4545" d="M373.415,150.573l-2.475,2.218c-.015-.041-.031-.08-.048-.121a16.661,16.661,0,0,0-6.957-7.638,27.509,27.509,0,0,0-6.171-2.731l-10.2,6.991s7.21-.363,9.612,5.025c2.333,5.317-.8,11.727-8.738,11.582a9.072,9.072,0,0,1-2.822-.472h0l-.009-18.151h0a37.807,37.807,0,0,1,13.173-7.159l2.258,2.477.555-3.1v0Z" transform="translate(-243.574 -98.307)" fill="#008fcc"></path>
                                <path id="Path_4546" data-name="Path 4546" d="M257.693,341.631H251.11l5.7-5.287a15.647,15.647,0,0,0,.879,5.287" transform="translate(-176.975 -237.045)" fill="#3e5f6e"></path>
                                <path id="Path_4547" data-name="Path 4547" d="M326.463,317.927v10.724h-3.278c-3.132-.945-4.733-2.69-4.733-5.314,0-2.876,2.711-4.812,8.01-5.409" transform="translate(-224.436 -224.065)" fill="#3e5f6e"></path>
                                <path id="Path_4548" data-name="Path 4548" d="M402.343,203.218h-55.38c.473-.975,1.143-1.556,4.024-1.813,2.092-.187,4.18-.342,6.253-.7,10.416-1.822,15.73-6.994,15.73-15.951v-.1a13.857,13.857,0,0,0-1.024-5.285c-.015-.041-.032-.083-.05-.124l2.475-2.218.453.417Z" transform="translate(-244.529 -124.768)" fill="#d26ba1"></path>
                                <path id="Path_4549" data-name="Path 4549" d="M374.286,291.861a14.456,14.456,0,0,0,1.294-6.23c0-7.939-5.282-13.037-15.842-14.422-2.6-.327-4.8-.534-6.628-.738-.254-.026-.508-.056-.762-.086-.151-.014-.3-.035-.443-.053-.216-.027-.431-.056-.644-.086l-.195-.027h0a.325.325,0,0,1-.053-.006L351,270.2l-.059-.053-.133-.124-.168-.159-.2-.186-.213-.2c-1.131-1.066-3.655-3.475-3.649-3.487a1.65,1.65,0,0,1,.112-.269h55.38Z" transform="translate(-244.261 -187.275)" fill="#872f76"></path>
                                <path id="Path_4550" data-name="Path 4550" d="M103.126,103.913v-.03h-15.4v22.68L80.693,120V109.657L103.112,88.67l.035,15.243Z" transform="translate(-56.87 -62.492)" fill="#e8913e"></path>
                                <path id="Path_4551" data-name="Path 4551" d="M171.87,102.961s-.133.006-.159.009a20.832,20.832,0,0,0-9.651,2.8c-.2.115-.4.233-.593.357-.151.092-.3.189-.449.286s-.28.186-.419.28c-.015.009-.03.021-.044.03l-.334.239q-.186.132-.372.275-.164.12-.328.248c-.189.148-.381.3-.57.455-.148.124-.3.248-.446.378-.118.1-.236.2-.354.313-.2.172-.393.351-.587.535-.124.118-.251.236-.375.36-.189.183-.375.369-.561.558V88.671Z" transform="translate(-110.387 -62.493)" fill="#b43d88"></path>
                                <path id="Path_4552" data-name="Path 4552" d="M174.562,184.426v.068l-.712.667-2.548,2.394-14.67,13.77V182.091a17.511,17.511,0,0,1,5.417-6.067c.236-.154.478-.3.723-.431a10.356,10.356,0,0,1,1.922-.809c.159-.05.325-.094.487-.136a10.983,10.983,0,0,1,1.258-.23.291.291,0,0,1,.071-.009l.189-.018c.1-.009.2-.018.3-.021.218-.015.44-.024.664-.024a9.856,9.856,0,0,1,1.134.065c.047.006.283.038.345.05a.228.228,0,0,0,.044.006,6.049,6.049,0,0,1,.682.154,5.932,5.932,0,0,1,.635.216c.115.047.23.1.34.151a4.057,4.057,0,0,1,.508.283c.083.05.162.1.242.159s.154.112.227.174c.151.121.292.251.431.387,1.591,1.585,2.312,4.4,2.312,8.435" transform="translate(-110.39 -122.875)" fill="#b43d88"></path>
                                <g id="Group_100" data-name="Group 100" transform="translate(46.243 51.473)" opacity="0.67">
                                    <g id="Group_99" data-name="Group 99">
                                        <g id="Group_98" data-name="Group 98" clip-path="url(#clip-path-4)">
                                            <path id="Path_4553" data-name="Path 4553" d="M174.562,184.426v28.968L171.3,210.4V182.646a5.3,5.3,0,0,0-2.929-4.806c-4.792-2.306-11.561,4.08-11.741,4.251a17.511,17.511,0,0,1,5.417-6.067c.236-.154.478-.3.723-.431a10.356,10.356,0,0,1,1.922-.809c.159-.05.325-.094.487-.136a10.983,10.983,0,0,1,1.258-.23.291.291,0,0,1,.071-.009l.189-.018c.1-.009.2-.018.3-.021.218-.015.44-.024.664-.024a9.856,9.856,0,0,1,1.134.065c.047.006.283.038.345.05a.228.228,0,0,0,.044.006,6.049,6.049,0,0,1,.682.154,5.932,5.932,0,0,1,.635.216c.115.047.23.1.34.151a4.057,4.057,0,0,1,.508.283c.083.05.162.1.242.159s.154.112.227.174c.151.121.292.251.431.387,1.591,1.585,2.312,4.4,2.312,8.435" transform="translate(-156.633 -174.347)" fill="#626262"></path>
                                        </g>
                                    </g>
                                </g>
                                <path id="Path_4554" data-name="Path 4554" d="M110.33,306.658v14.05h-5.282a18.07,18.07,0,0,1-14.115-7.959l6.5-6.091Z" transform="translate(-64.087 -216.123)" fill="#dc5b5d"></path>
                                <rect id="Rectangle_2055" data-name="Rectangle 2055" width="0.027" height="0.015" transform="translate(46.243 90.52)" fill="#dc5b5d"></rect>
                                <path id="Path_4555" data-name="Path 4555" d="M184.525,291.863H156.633V265.728Z" transform="translate(-110.39 -187.277)" fill="#aec55c"></path>
                                <path id="Path_4556" data-name="Path 4556" d="M467.77,140.942,439.8,114.758,467.77,88.671Z" transform="translate(-309.956 -62.492)" fill="#6cb263"></path>
                                <path id="Path_4557" data-name="Path 4557" d="M562.459,114.758l-27.914,26.184V88.67Z" transform="translate(-376.732 -62.492)" fill="#009854"></path>
                                <path id="Path_4558" data-name="Path 4558" d="M557.03,286.736a18.007,18.007,0,0,1-11.774,5.122.166.166,0,0,1-.038,0H534.546V265.724Z" transform="translate(-376.732 -187.274)" fill="#ab403e"></path>
                                <path id="Path_4559" data-name="Path 4559" d="M18.033,178.181v37.913L0,200.138v-5.069Z" transform="translate(0 -125.577)" fill="#aec55c"></path>
                                <path id="Path_4560" data-name="Path 4560" d="M360.733,323.012c0,2.477-1.745,4.222-5.025,5.167H345.585V317.456a33.609,33.609,0,0,1,3.787-.2c7.283,0,11.36,2.258,11.36,5.754" transform="translate(-243.558 -223.594)" fill="#b43d88"></path>
                                <path id="Path_4561" data-name="Path 4561" d="M562.483,211.381v.018a18.029,18.029,0,0,1-5.453,12.831l-22.484-21.012,27.914-26.184Z" transform="translate(-376.732 -124.768)" fill="#aec55c"></path>
                                <path id="Path_4562" data-name="Path 4562" d="M350.7,270.847l-.059-.053-.133-.124-.168-.159-.2-.186-.213-.2-3.649-3.487c0,.033-1.287,3.325,4.337,4.207.012,0,.027,0,.038.006a77.085,77.085,0,0,0,.106.012h0l.195.027c-.086-.015-.174-.027-.26-.041" transform="translate(-243.961 -187.918)" fill="#b43d88"></path>
                                <path id="Path_4563" data-name="Path 4563" d="M18.033,80.966a9.016,9.016,0,1,0-9.017,9.016,9.017,9.017,0,0,0,9.017-9.016" transform="translate(0 -50.708)" fill="#3a569a"></path>
                            </g>
                        </g>
                    </g>
                </svg>